<svg preserveAspectRatio="none" width="100%" height="100%" overflow="visible" style="display: block;" viewBox="0 0 16 16" fill="none" xmlns="http://www.w3.org/2000/svg">
<g id="presention-chart">
<path id="Vector" opacity="0" d="M15.5 0.5V15.5H0.5V0.5H15.5Z" stroke="#40A93D"/>
<g id="Vector_2">
<mask id="path-2-inside-1_0_31" fill="white">
<path d="M14.6667 1.83333H1.33333C1.06 1.83333 0.833333 1.60667 0.833333 1.33333C0.833333 1.06 1.06 0.833333 1.33333 0.833333H14.6667C14.94 0.833333 15.1667 1.06 15.1667 1.33333C15.1667 1.60667 14.94 1.83333 14.6667 1.83333Z"/>
</mask>
<path d="M14.6667 1.83333H1.33333C1.06 1.83333 0.833333 1.60667 0.833333 1.33333C0.833333 1.06 1.06 0.833333 1.33333 0.833333H14.6667C14.94 0.833333 15.1667 1.06 15.1667 1.33333C15.1667 1.60667 14.94 1.83333 14.6667 1.83333Z" fill="#40A93D"/>
<path d="M14.6667 1.83333V0.833333H1.33333V1.83333V2.83333H14.6667V1.83333ZM1.33333 1.83333V0.833333C1.61228 0.833333 1.83333 1.05438 1.83333 1.33333H0.833333H-0.166667C-0.166667 2.15895 0.507715 2.83333 1.33333 2.83333V1.83333ZM0.833333 1.33333H1.83333C1.83333 1.61228 1.61228 1.83333 1.33333 1.83333V0.833333V-0.166667C0.507715 -0.166667 -0.166667 0.507715 -0.166667 1.33333H0.833333ZM1.33333 0.833333V1.83333H14.6667V0.833333V-0.166667H1.33333V0.833333ZM14.6667 0.833333V1.83333C14.3877 1.83333 14.1667 1.61228 14.1667 1.33333H15.1667H16.1667C16.1667 0.507715 15.4923 -0.166667 14.6667 -0.166667V0.833333ZM15.1667 1.33333H14.1667C14.1667 1.05438 14.3877 0.833333 14.6667 0.833333V1.83333V2.83333C15.4923 2.83333 16.1667 2.15895 16.1667 1.33333H15.1667Z" fill="#40A93D" mask="url(#path-2-inside-1_0_31)"/>
</g>
<g id="Vector_3">
<mask id="path-4-inside-2_0_31" fill="white">
<path d="M11.1133 14.8933C11.0267 15.0667 10.8467 15.1667 10.6667 15.1667C10.5933 15.1667 10.5133 15.1467 10.4467 15.1133L8 13.8933L5.55333 15.1133C5.48667 15.1467 5.40667 15.1667 5.33333 15.1667C5.15333 15.1667 4.97333 15.0667 4.88667 14.8933C4.76 14.64 4.86 14.34 5.11333 14.22L7.5 13.0267V11.3333H8.5V13.0267L10.8867 14.22C11.14 14.34 11.24 14.64 11.1133 14.8933Z"/>
</mask>
<path d="M11.1133 14.8933C11.0267 15.0667 10.8467 15.1667 10.6667 15.1667C10.5933 15.1667 10.5133 15.1467 10.4467 15.1133L8 13.8933L5.55333 15.1133C5.48667 15.1467 5.40667 15.1667 5.33333 15.1667C5.15333 15.1667 4.97333 15.0667 4.88667 14.8933C4.76 14.64 4.86 14.34 5.11333 14.22L7.5 13.0267V11.3333H8.5V13.0267L10.8867 14.22C11.14 14.34 11.24 14.64 11.1133 14.8933Z" fill="#40A93D"/>
<path d="M10.4467 15.1133L10.8939 14.2189L10.8929 14.2184L10.4467 15.1133ZM8 13.8933L8.44624 12.9984L8 12.7759L7.55376 12.9984L8 13.8933ZM5.55333 15.1133L5.10709 14.2184L5.10612 14.2189L5.55333 15.1133ZM5.11333 14.22L5.54142 15.1237L5.55103 15.1192L5.56055 15.1144L5.11333 14.22ZM7.5 13.0267L7.94721 13.9211L8.5 13.6447V13.0267H7.5ZM7.5 11.3333V10.3333H6.5V11.3333H7.5ZM8.5 11.3333H9.5V10.3333H8.5V11.3333ZM8.5 13.0267H7.5V13.6447L8.05279 13.9211L8.5 13.0267ZM10.8867 14.22L10.4395 15.1144L10.449 15.1192L10.4586 15.1237L10.8867 14.22ZM11.1133 14.8933L10.2189 14.4461C10.3129 14.2581 10.4938 14.1667 10.6667 14.1667V15.1667V16.1667C11.1996 16.1667 11.7404 15.8752 12.0078 15.3405L11.1133 14.8933ZM10.6667 15.1667V14.1667C10.7185 14.1667 10.7601 14.1734 10.7916 14.1811C10.8235 14.1889 10.8575 14.2007 10.8939 14.2189L10.4467 15.1133L9.99945 16.0078C10.1951 16.1056 10.4274 16.1667 10.6667 16.1667V15.1667ZM10.4467 15.1133L10.8929 14.2184L8.44624 12.9984L8 13.8933L7.55376 14.7882L10.0004 16.0082L10.4467 15.1133ZM8 13.8933L7.55376 12.9984L5.1071 14.2184L5.55333 15.1133L5.99957 16.0082L8.44624 14.7882L8 13.8933ZM5.55333 15.1133L5.10612 14.2189C5.14253 14.2007 5.17655 14.1889 5.20838 14.1811C5.23986 14.1734 5.28147 14.1667 5.33333 14.1667V15.1667V16.1667C5.57258 16.1667 5.80489 16.1056 6.00055 16.0078L5.55333 15.1133ZM5.33333 15.1667V14.1667C5.50624 14.1667 5.6871 14.2581 5.78109 14.4461L4.88667 14.8933L3.99224 15.3405C4.25957 15.8752 4.80043 16.1667 5.33333 16.1667V15.1667ZM4.88667 14.8933L5.78109 14.4461C5.89779 14.6795 5.80945 14.9968 5.54142 15.1237L5.11333 14.22L4.68525 13.3163C3.91055 13.6832 3.62221 14.6005 3.99224 15.3405L4.88667 14.8933ZM5.11333 14.22L5.56055 15.1144L7.94721 13.9211L7.5 13.0267L7.05279 12.1322L4.66612 13.3256L5.11333 14.22ZM7.5 13.0267H8.5V11.3333H7.5H6.5V13.0267H7.5ZM7.5 11.3333V12.3333H8.5V11.3333V10.3333H7.5V11.3333ZM8.5 11.3333H7.5V13.0267H8.5H9.5V11.3333H8.5ZM8.5 13.0267L8.05279 13.9211L10.4395 15.1144L10.8867 14.22L11.3339 13.3256L8.94721 12.1322L8.5 13.0267ZM10.8867 14.22L10.4586 15.1237C10.1905 14.9968 10.1022 14.6795 10.2189 14.4461L11.1133 14.8933L12.0078 15.3405C12.3778 14.6005 12.0895 13.6832 11.3148 13.3163L10.8867 14.22Z" fill="#40A93D" mask="url(#path-4-inside-2_0_31)"/>
</g>
<path id="Vector_4" d="M13.5 1.83333V9.39974C13.5 9.9495 13.3558 10.2862 13.1543 10.4876C12.9528 10.6891 12.6162 10.8333 12.0664 10.8333H3.93359C3.38384 10.8333 3.04718 10.6891 2.8457 10.4876C2.64423 10.2862 2.5 9.9495 2.5 9.39974V1.83333H13.5ZM11.7686 4.69076C11.4404 4.30207 10.869 4.20989 10.4414 4.5013L10.3574 4.56478L8.85449 5.81478L8.45605 5.15169H8.45703C8.25943 4.81889 7.9285 4.57858 7.53516 4.51302H7.53418C7.15264 4.44875 6.7611 4.55953 6.46094 4.80794L6.45996 4.8099L4.35938 6.56283L4.35742 6.56478C3.94278 6.91482 3.86547 7.54216 4.23145 7.97591V7.97493C4.43341 8.21603 4.72372 8.33333 5 8.33333C5.21201 8.33333 5.4461 8.26897 5.64453 8.09896L7.14453 6.85091L7.54297 7.514V7.51497C7.74057 7.84778 8.0715 8.08809 8.46484 8.15365V8.15267C8.84673 8.21734 9.23861 8.10737 9.53906 7.85872L9.54004 7.85677L11.6406 6.10384L11.6426 6.10189C12.0658 5.74457 12.118 5.12051 11.7744 4.69759L11.7686 4.69076Z" fill="#40A93D" stroke="#40A93D"/>
</g>
</svg>
