<svg preserveAspectRatio="xMidYMid meet" width="270" height="270" overflow="visible" viewBox="0 0 270 270" fill="none" xmlns="http://www.w3.org/2000/svg" xmlns:xlink="http://www.w3.org/1999/xlink">
<g id="Group 2087327224">
<path id="Ellipse 5742" d="M243.643 195.833C248.696 198.662 255.126 196.873 257.555 191.616C268.183 168.611 272.151 143.005 268.891 117.731C265.183 88.9807 252.319 62.1875 232.202 41.3154C212.085 20.4433 185.784 6.60098 157.19 1.83624C132.053 -2.35231 106.318 0.66963 82.9369 10.4432C77.5939 12.6766 75.5701 19.0365 78.2112 24.19L93.2199 53.476C95.8611 58.6295 102.166 60.5953 107.617 58.6404C120.6 53.9845 134.615 52.6962 148.334 54.9822C165.516 57.8453 181.32 66.1632 193.409 78.7052C205.497 91.2472 213.227 107.347 215.455 124.623C217.234 138.417 215.43 152.375 210.299 165.178C208.145 170.553 209.877 176.926 214.93 179.755L243.643 195.833Z" fill="url(#pattern0_0_4)"/>
<path id="Ellipse 5743" d="M25.6937 194.632C20.6101 197.405 14.1998 195.546 11.8291 190.263C-1.29906 161.005 -3.62742 127.901 5.48319 96.9169C14.5938 65.9327 34.4702 39.3577 61.3454 21.8628C66.1987 18.7035 72.595 20.61 75.3684 25.6936L91.1284 54.5822C93.9018 59.6658 91.9782 65.9833 87.2944 69.3887C72.8933 79.8592 62.2511 94.8481 57.1737 112.116C52.0962 129.384 52.9314 147.748 59.3729 164.347C61.468 169.745 59.6659 176.099 54.5823 178.872L25.6937 194.632Z" fill="#FFBC13"/>
</g>
<defs>
<pattern id="pattern0_0_4" patternUnits="userSpaceOnUse" patternTransform="matrix(222.13 0 0 1602.03 23.9352 -666.015)" preserveAspectRatio="none" viewBox="0 0 229 1651.58" width="1" height="1">
<g id="pattern0_0_4_inner">
<g id="Repeat group 4">
<g id="Repeat group 4_inner" data-figma-trr="l40p36-0f">
<path id="Rectangle 376714292" d="M0 233.953L229 0V13.625L0 247.578V233.953Z" fill="#D9D9D9"/>
</g>
<use xlink:href="#Repeat%20group%204_inner" transform="translate(0 36)"/>
<use xlink:href="#Repeat%20group%204_inner" transform="translate(0 72)"/>
<use xlink:href="#Repeat%20group%204_inner" transform="translate(0 108)"/>
<use xlink:href="#Repeat%20group%204_inner" transform="translate(0 144)"/>
<use xlink:href="#Repeat%20group%204_inner" transform="translate(0 180)"/>
<use xlink:href="#Repeat%20group%204_inner" transform="translate(0 216)"/>
<use xlink:href="#Repeat%20group%204_inner" transform="translate(0 252)"/>
<use xlink:href="#Repeat%20group%204_inner" transform="translate(0 288)"/>
<use xlink:href="#Repeat%20group%204_inner" transform="translate(0 324)"/>
<use xlink:href="#Repeat%20group%204_inner" transform="translate(0 360)"/>
<use xlink:href="#Repeat%20group%204_inner" transform="translate(0 396)"/>
<use xlink:href="#Repeat%20group%204_inner" transform="translate(0 432)"/>
<use xlink:href="#Repeat%20group%204_inner" transform="translate(0 468)"/>
<use xlink:href="#Repeat%20group%204_inner" transform="translate(0 504)"/>
<use xlink:href="#Repeat%20group%204_inner" transform="translate(0 540)"/>
<use xlink:href="#Repeat%20group%204_inner" transform="translate(0 576)"/>
<use xlink:href="#Repeat%20group%204_inner" transform="translate(0 612)"/>
<use xlink:href="#Repeat%20group%204_inner" transform="translate(0 648)"/>
<use xlink:href="#Repeat%20group%204_inner" transform="translate(0 684)"/>
<use xlink:href="#Repeat%20group%204_inner" transform="translate(0 720)"/>
<use xlink:href="#Repeat%20group%204_inner" transform="translate(0 756)"/>
<use xlink:href="#Repeat%20group%204_inner" transform="translate(0 792)"/>
<use xlink:href="#Repeat%20group%204_inner" transform="translate(0 828)"/>
<use xlink:href="#Repeat%20group%204_inner" transform="translate(0 864)"/>
<use xlink:href="#Repeat%20group%204_inner" transform="translate(0 900)"/>
<use xlink:href="#Repeat%20group%204_inner" transform="translate(0 936)"/>
<use xlink:href="#Repeat%20group%204_inner" transform="translate(0 972)"/>
<use xlink:href="#Repeat%20group%204_inner" transform="translate(0 1008)"/>
<use xlink:href="#Repeat%20group%204_inner" transform="translate(0 1044)"/>
<use xlink:href="#Repeat%20group%204_inner" transform="translate(0 1080)"/>
<use xlink:href="#Repeat%20group%204_inner" transform="translate(0 1116)"/>
<use xlink:href="#Repeat%20group%204_inner" transform="translate(0 1152)"/>
<use xlink:href="#Repeat%20group%204_inner" transform="translate(0 1188)"/>
<use xlink:href="#Repeat%20group%204_inner" transform="translate(0 1224)"/>
<use xlink:href="#Repeat%20group%204_inner" transform="translate(0 1260)"/>
<use xlink:href="#Repeat%20group%204_inner" transform="translate(0 1296)"/>
<use xlink:href="#Repeat%20group%204_inner" transform="translate(0 1332)"/>
<use xlink:href="#Repeat%20group%204_inner" transform="translate(0 1368)"/>
<use xlink:href="#Repeat%20group%204_inner" transform="translate(0 1404)"/>
</g>
</g>
</pattern></defs>
</svg>
