<svg preserveAspectRatio="none" width="100%" height="100%" overflow="visible" style="display: block;" viewBox="0 0 185.192 24.595" fill="none" xmlns="http://www.w3.org/2000/svg">
<path id="Vector" fill-rule="evenodd" clip-rule="evenodd" d="M169.274 0.416864H174.614L174.589 8.93652H175.75L178.794 0.416864H184.599L180.445 11.6722L185.192 24.126H178.923L175.853 14.5902H174.589L174.614 24.126H169.274V0.416864ZM151.24 0.416864H156.554V8.96258H160.373V0.416864H165.688V24.1521H160.373V14.6423H156.554V24.1521H151.24V0.416864ZM132.689 24.1521H138.236L138.907 20.0616H142.7L143.371 24.1521H148.918L144.248 0.442919H137.385L132.689 24.1521ZM140.816 7.63382L141.823 14.8508H139.784L140.816 7.63382ZM117.829 24.126H124.304C125.723 24.126 131.606 23.5268 131.632 16.3359C131.632 10.2913 127.065 9.24917 124.098 9.24917H123.118V6.09664H130.316V0.416864H117.777V24.126H117.829ZM123.143 19.3581V13.991H123.917C124.588 13.991 126.291 14.0171 126.291 16.4661C126.291 18.9413 124.588 19.3581 123.917 19.3581H123.143ZM96.7242 0.416864H101.342L105.419 5.99242L109.547 0.39081H114.139V24.126H108.695V9.66603L105.419 13.8086L102.142 9.66603V24.126H96.6984C96.7242 24.126 96.7242 0.416864 96.7242 0.416864ZM85.4754 24.4126C91.9254 24.4126 94.0926 18.316 94.0926 12.2454C94.0926 6.1748 91.9254 0.0781612 85.4754 0.0781612C79.0254 0.0781612 76.8582 6.1748 76.8582 12.2454C76.8582 18.316 79.0254 24.4126 85.4754 24.4126ZM85.4754 18.6547C83.5404 18.6547 82.5858 16.388 82.5858 12.2193C82.5858 8.05069 83.5662 5.78399 85.4754 5.78399C87.4104 5.78399 88.365 8.05069 88.365 12.2193C88.365 16.414 87.4104 18.6547 85.4754 18.6547ZM61.0686 24.126H66.5124V16.3098H68.3442C73.7364 16.3098 75.3876 11.4117 75.3876 8.28517C75.3876 5.23686 73.4526 0.39081 68.3442 0.39081H61.0686V24.126ZM66.5124 5.62766H67.8024C69.0408 5.62766 69.8148 6.38323 69.8148 8.36333C69.8148 10.9166 68.499 11.099 67.8024 11.099H66.5124V5.62766ZM43.1118 0.416864H57.9726V24.1521H52.5288V6.12269H48.5556V24.126H43.1118V0.416864ZM31.9404 9.58787C32.8176 9.58787 34.4172 9.01469 34.4172 7.26907C34.4172 5.2108 32.5596 5.08053 32.0178 5.08053C31.3986 5.08053 30.186 5.18475 29.025 5.75793L28.9734 0.599242C30.831 0.13027 32.1468 0 33.7206 0C38.184 0 40.1706 3.15254 40.1706 6.22691C40.1706 9.22312 38.4678 11.0208 36.7908 11.7243V11.9327C38.3904 12.4538 40.5318 13.991 40.5318 17.6386C40.5318 22.1198 37.4358 24.595 33.4884 24.595C31.3728 24.5689 30.0054 24.2823 28.3284 23.3704L28.4316 18.4462C29.9796 19.1236 31.0116 19.1757 32.0436 19.1757C33.798 19.1757 34.4946 17.873 34.4946 16.909C34.4946 15.5803 33.6432 14.6945 31.7856 14.6945H29.5926V9.58787H31.9404ZM10.5264 24.126H16.0218L16.7184 20.0095H20.5368L21.2076 24.126H26.703L22.0332 0.39081H15.1704L10.5264 24.126ZM18.6276 7.55566L19.6596 14.7987H17.5698L18.6276 7.55566ZM0 0.416864H11.1714V6.33112H5.547V24.1521H0V0.416864Z" fill="#476BF0"/>
</svg>
