<svg preserveAspectRatio="none" width="100%" height="100%" overflow="visible" style="display: block;" viewBox="0 0 24 24" fill="none" xmlns="http://www.w3.org/2000/svg">
<g id="wallet-2">
<path id="Vector" opacity="0" d="M0.75 23.25L0.75 0.75L23.25 0.75L23.25 23.25L0.75 23.25Z" stroke="#40A93D" stroke-width="1.5"/>
<path id="Vector_2" d="M18.9197 10.7H20.9734L21.033 10.7068C21.1658 10.7372 21.2496 10.8509 21.2498 10.9695V13.0301C21.2497 13.1636 21.1437 13.2899 20.9812 13.2996H19.0398C18.2909 13.2995 17.6808 12.7528 17.6277 12.118L17.6267 12.1092L17.6209 11.9627C17.6279 11.6254 17.771 11.3139 18.0037 11.0867L18.0174 11.073C18.2451 10.8392 18.5608 10.7001 18.9197 10.7Z" fill="#40A93D" stroke="#40A93D" stroke-width="1.5"/>
<path id="Vector_3" d="M7 4.25H16C16.2445 4.25 16.447 4.26005 16.627 4.29004L16.6445 4.29297L16.6631 4.29492C18.6005 4.52204 19.9051 5.78058 20.1865 7.7002H18.9199C17.773 7.70022 16.693 8.14077 15.9072 8.94238C14.985 9.8403 14.5237 11.1018 14.6328 12.3643V12.3652C14.8286 14.5919 16.771 16.2998 19.04 16.2998H20.1885C20.0378 17.3308 19.5925 18.1537 18.9453 18.7324C18.2381 19.3648 17.2409 19.75 16 19.75H7C4.65421 19.75 2.75 17.8458 2.75 15.5V8.5C2.75 7.29287 3.11239 6.31731 3.70996 5.61621C4.30597 4.91715 5.17614 4.44266 6.2832 4.30371L6.29395 4.30273L6.30371 4.30176C6.52365 4.26792 6.75575 4.25 7 4.25ZM7 7.5C6.17579 7.5 5.5 8.17579 5.5 9C5.5 9.82421 6.17579 10.5 7 10.5H13C13.8242 10.5 14.5 9.82421 14.5 9C14.5 8.17579 13.8242 7.5 13 7.5H7Z" fill="#40A93D" stroke="#40A93D" stroke-width="1.5"/>
</g>
</svg>
