<svg preserveAspectRatio="none" width="100%" height="100%" overflow="visible" style="display: block;" viewBox="0 0 16 16" fill="none" xmlns="http://www.w3.org/2000/svg">
<g id="bank">
<path id="Vector" d="M8.24666 1.43335L14.2467 3.83333C14.48 3.92667 14.6667 4.20666 14.6667 4.45333V6.66667C14.6667 7.03333 14.3667 7.33333 14 7.33333H2C1.63333 7.33333 1.33333 7.03333 1.33333 6.66667V4.45333C1.33333 4.20666 1.52 3.92667 1.75334 3.83333L7.75334 1.43335C7.88667 1.38002 8.11333 1.38002 8.24666 1.43335Z" stroke="var(--stroke-0, #1F1F1F)" stroke-width="0.8" stroke-miterlimit="10" stroke-linecap="round" stroke-linejoin="round"/>
<path id="Vector_2" d="M14.6667 14.6667H1.33333V12.6667C1.33333 12.3 1.63333 12 2 12H14C14.3667 12 14.6667 12.3 14.6667 12.6667V14.6667Z" stroke="var(--stroke-0, #1F1F1F)" stroke-width="0.8" stroke-miterlimit="10" stroke-linecap="round" stroke-linejoin="round"/>
<path id="Vector_3" d="M2.66667 12V7.33333" stroke="var(--stroke-0, #1F1F1F)" stroke-width="0.8" stroke-miterlimit="10" stroke-linecap="round" stroke-linejoin="round"/>
<path id="Vector_4" d="M5.33333 12V7.33333" stroke="var(--stroke-0, #1F1F1F)" stroke-width="0.8" stroke-miterlimit="10" stroke-linecap="round" stroke-linejoin="round"/>
<path id="Vector_5" d="M8 12V7.33333" stroke="var(--stroke-0, #1F1F1F)" stroke-width="0.8" stroke-miterlimit="10" stroke-linecap="round" stroke-linejoin="round"/>
<path id="Vector_6" d="M10.6667 12V7.33333" stroke="var(--stroke-0, #1F1F1F)" stroke-width="0.8" stroke-miterlimit="10" stroke-linecap="round" stroke-linejoin="round"/>
<path id="Vector_7" d="M13.3333 12V7.33333" stroke="var(--stroke-0, #1F1F1F)" stroke-width="0.8" stroke-miterlimit="10" stroke-linecap="round" stroke-linejoin="round"/>
<path id="Vector_8" d="M0.666667 14.6667H15.3333" stroke="var(--stroke-0, #1F1F1F)" stroke-width="0.8" stroke-miterlimit="10" stroke-linecap="round" stroke-linejoin="round"/>
<path id="Vector_9" d="M8 5.66667C8.55228 5.66667 9 5.21895 9 4.66667C9 4.11438 8.55228 3.66667 8 3.66667C7.44772 3.66667 7 4.11438 7 4.66667C7 5.21895 7.44772 5.66667 8 5.66667Z" stroke="var(--stroke-0, black)" stroke-width="0.8" stroke-miterlimit="10" stroke-linecap="round" stroke-linejoin="round"/>
<g id="Vector_10" opacity="0">
</g>
</g>
</svg>
