<svg width="16" height="16" viewBox="0 0 16 16" fill="none" xmlns="http://www.w3.org/2000/svg">
<g opacity="0.8">
<path d="M11.4531 12C13.0531 12 13.4531 11.1 13.4531 10V6C13.4531 4.9 13.0531 4 11.4531 4C9.85312 4 9.45312 4.9 9.45312 6V10C9.45312 11.1 9.85312 12 11.4531 12Z" stroke="#1F1F1F" stroke-width="0.8" stroke-linecap="round" stroke-linejoin="round"/>
<path d="M4.54688 12C2.94688 12 2.54688 11.1 2.54688 10V6C2.54688 4.9 2.94688 4 4.54688 4C6.14688 4 6.54688 4.9 6.54688 6V10C6.54688 11.1 6.14688 12 4.54688 12Z" stroke="#1F1F1F" stroke-width="0.8" stroke-linecap="round" stroke-linejoin="round"/>
<path d="M6.54688 8H9.45354" stroke="#1F1F1F" stroke-width="0.8" stroke-linecap="round" stroke-linejoin="round"/>
<path d="M15 9.66665V6.33331" stroke="#1F1F1F" stroke-width="0.8" stroke-linecap="round" stroke-linejoin="round"/>
<path d="M1 9.66665V6.33331" stroke="#1F1F1F" stroke-width="0.8" stroke-linecap="round" stroke-linejoin="round"/>
</g>
</svg>
